<?xml version="1.0" standalone="no"?>
<!DOCTYPE svg PUBLIC "-//W3C//DTD SVG 20010904//EN"
 "http://www.w3.org/TR/2001/REC-SVG-20010904/DTD/svg10.dtd">
<svg version="1.0" xmlns="http://www.w3.org/2000/svg"
 width="159.000000pt" height="221.000000pt" viewBox="0 0 159.000000 221.000000"
 preserveAspectRatio="xMidYMid meet">
<metadata>
Created by potrace 1.14, written by Peter Selinger 2001-2017
</metadata>
<g transform="translate(0.000000,221.000000) scale(0.100000,-0.100000)"
fill="#000000" stroke="none">
<path d="M634 2156 c-248 -47 -430 -158 -511 -311 -49 -93 -66 -166 -66 -280
0 -114 19 -198 65 -289 33 -66 88 -150 94 -144 2 2 -5 33 -16 68 -11 35 -17
66 -14 69 2 3 26 -15 52 -40 115 -110 313 -261 529 -403 72 -48 148 -105 168
-128 145 -159 83 -391 -131 -494 -106 -51 -228 -74 -399 -75 -161 0 -157 -6
34 -46 110 -23 149 -27 306 -27 153 1 192 4 260 22 309 84 459 275 443 565 -7
114 -37 200 -101 290 -62 86 -86 106 -354 287 -335 226 -393 292 -393 445 0
130 51 224 146 271 49 24 73 29 183 34 113 7 139 12 261 53 74 25 162 49 195
53 l60 8 -78 18 c-193 44 -313 60 -487 64 -119 2 -198 -1 -246 -10z"/>
</g>
</svg>
